<mxfile host="app.diagrams.net" modified="2022-02-27T16:47:34.800Z" agent="5.0 (Windows NT 10.0; Win64; x64) AppleWebKit/537.36 (KHTML, like Gecko) Chrome/98.0.4758.102 Safari/537.36 Edg/98.0.1108.62" etag="zZ6Nn1GVPLJZrtgU1WWj" version="16.6.4" type="github">
  <diagram id="ea_-lUV-3jDo-vj0GpZN" name="第 1 页">
    <mxGraphModel dx="1038" dy="556" grid="1" gridSize="10" guides="1" tooltips="1" connect="1" arrows="1" fold="1" page="1" pageScale="1" pageWidth="1654" pageHeight="2336" math="0" shadow="0">
      <root>
        <mxCell id="0" />
        <mxCell id="1" parent="0" />
        <mxCell id="j-bBg71Wt-pAjwKJh62o-1" value="Thread" style="rounded=1;whiteSpace=wrap;html=1;" vertex="1" parent="1">
          <mxGeometry x="130" y="200" width="120" height="60" as="geometry" />
        </mxCell>
        <mxCell id="j-bBg71Wt-pAjwKJh62o-7" style="edgeStyle=orthogonalEdgeStyle;rounded=0;orthogonalLoop=1;jettySize=auto;html=1;entryX=1;entryY=0.5;entryDx=0;entryDy=0;" edge="1" parent="1" source="j-bBg71Wt-pAjwKJh62o-2" target="j-bBg71Wt-pAjwKJh62o-1">
          <mxGeometry relative="1" as="geometry" />
        </mxCell>
        <mxCell id="j-bBg71Wt-pAjwKJh62o-2" value="Runnable" style="rounded=1;whiteSpace=wrap;html=1;" vertex="1" parent="1">
          <mxGeometry x="360" y="200" width="120" height="60" as="geometry" />
        </mxCell>
        <mxCell id="j-bBg71Wt-pAjwKJh62o-6" style="edgeStyle=orthogonalEdgeStyle;rounded=0;orthogonalLoop=1;jettySize=auto;html=1;entryX=1;entryY=0.5;entryDx=0;entryDy=0;" edge="1" parent="1" source="j-bBg71Wt-pAjwKJh62o-3" target="j-bBg71Wt-pAjwKJh62o-2">
          <mxGeometry relative="1" as="geometry" />
        </mxCell>
        <mxCell id="j-bBg71Wt-pAjwKJh62o-3" value="FutureTask" style="rounded=1;whiteSpace=wrap;html=1;" vertex="1" parent="1">
          <mxGeometry x="600" y="200" width="120" height="60" as="geometry" />
        </mxCell>
        <mxCell id="j-bBg71Wt-pAjwKJh62o-5" style="edgeStyle=orthogonalEdgeStyle;rounded=0;orthogonalLoop=1;jettySize=auto;html=1;exitX=0;exitY=0.5;exitDx=0;exitDy=0;entryX=1;entryY=0.5;entryDx=0;entryDy=0;" edge="1" parent="1" source="j-bBg71Wt-pAjwKJh62o-4" target="j-bBg71Wt-pAjwKJh62o-3">
          <mxGeometry relative="1" as="geometry" />
        </mxCell>
        <mxCell id="j-bBg71Wt-pAjwKJh62o-4" value="Callable" style="rounded=1;whiteSpace=wrap;html=1;" vertex="1" parent="1">
          <mxGeometry x="827" y="200" width="120" height="60" as="geometry" />
        </mxCell>
      </root>
    </mxGraphModel>
  </diagram>
</mxfile>
